<svg id="Layer_1" data-name="Layer 1" xmlns="http://www.w3.org/2000/svg" viewBox="0 0 714.88 383.43"><defs><style>.cls-1{fill:#dca428;}.cls-2{fill:#125b5f;}.cls-3{fill:#086f7a;}.cls-4{fill:#414140;}</style></defs><path class="cls-1" d="M1050.12,316.23C989.67,281.09,965,253.34,965,253.34s-24.73,27.75-85.18,62.89C832,344,834.1,388.09,834.33,391.43l.18.05C857.83,364,965,348.28,965,348.28s106.77,14.8,130.6,43.37C1095.55,391.65,1099.81,345.12,1050.12,316.23Z" transform="translate(-606.13 -253.34)"/><path class="cls-1" d="M965,366.55s-113.67,18.31-113.67,40.89v5.39c4.73,6.46,11.64,11.94,18.7,17.27a18.8,18.8,0,0,1,8.2-13.07c11.17-7.57,15.74-13.54,15.74-13.54s4.56,6,15.73,13.54A19,19,0,0,1,918,433.27a.87.87,0,0,0-.09-.11s0,.07,0,.11v52.07a218.94,218.94,0,0,1,22.16,25V419.24s0-.07,0-.1l-.09.1A19,19,0,0,1,948.43,403c11.17-7.56,15.73-13.54,15.73-13.54s4.57,6,15.74,13.54a19,19,0,0,1,8.39,16.24l-.09-.1V487.4a280.19,280.19,0,0,1,22.17-24.32V433.27s0-.07,0-.1a.43.43,0,0,0-.09.1,19,19,0,0,1,8.39-16.24c11.16-7.57,15.73-13.54,15.73-13.54s4.57,6,15.73,13.54a18.66,18.66,0,0,1,6.42,7.33q10.9-8.08,22.06-15.81v-1.11C1078.62,384.86,965,366.55,965,366.55Z" transform="translate(-606.13 -253.34)"/><path class="cls-2" d="M1020.55,537.36c29.94-27.85,76.74-59.67,143.26-74.16,8.91-44,3.52-94.91,3.52-94.91C1031,440.61,981.51,560.19,967.9,601.89A299.27,299.27,0,0,1,1020.55,537.36Z" transform="translate(-606.13 -253.34)"/><path class="cls-2" d="M963.57,636.77s150.76-42.61,357.44,0c0,0-13.32-35.69-38.06-48.18,0,0-140.66-42.91-311.39,38.59C971.56,627.18,966,632.78,963.57,636.77Z" transform="translate(-606.13 -253.34)"/><path class="cls-2" d="M968.9,625.05c96.95-52.73,189.64-73,310.56-44.61C1142.29,515.32,1052.27,546.79,968.9,625.05Z" transform="translate(-606.13 -253.34)"/><path class="cls-2" d="M971.3,612a394.05,394.05,0,0,1,33.33-26.91,1.05,1.05,0,0,1-.11.07S1101,487.9,1216.07,485.09c0,0,5.75,19-13.9,59.21,1.94.44,3.87.88,5.83,1.37,23.3-28.16,42.82-82.29,42.82-82.29C1071.53,458.45,992,575,971.3,612Z" transform="translate(-606.13 -253.34)"/><path class="cls-3" d="M971.56,627.18s157-51.89,338.44-11.83c-6.38-10-15.46-20.91-27-26.76C1283,588.59,1142.29,545.68,971.56,627.18Z" transform="translate(-606.13 -253.34)"/><path class="cls-3" d="M1142.29,447.66c12-13.31,25-79.37,25-79.37C1031,440.61,981.51,560.19,967.9,601.89,1022.84,479.12,1142.29,447.66,1142.29,447.66Z" transform="translate(-606.13 -253.34)"/><path class="cls-3" d="M968.9,625.05c73-46.87,174.19-92.95,310.56-44.61C1142.29,515.32,1052.27,546.79,968.9,625.05Z" transform="translate(-606.13 -253.34)"/><path class="cls-4" d="M1004.63,585.11a1.05,1.05,0,0,1-.11.07h0Z" transform="translate(-606.13 -253.34)"/><path class="cls-3" d="M1222.06,480.16c-130.24-7.19-217.54,105-217.54,105S1101,487.9,1216.07,485.09c0,0,5.75,19-13.9,59.21C1222.64,513,1222.06,480.16,1222.06,480.16Z" transform="translate(-606.13 -253.34)"/><path class="cls-2" d="M906.6,537.36c-30-27.85-76.75-59.67-143.27-74.16-8.91-44-3.51-94.91-3.51-94.91,136.38,72.32,185.81,191.9,199.42,233.6A299.17,299.17,0,0,0,906.6,537.36Z" transform="translate(-606.13 -253.34)"/><path class="cls-2" d="M963.57,636.77s-150.75-42.61-357.44,0c0,0,13.32-35.69,38.07-48.18,0,0,140.65-42.91,311.38,38.59C955.58,627.18,961.18,632.78,963.57,636.77Z" transform="translate(-606.13 -253.34)"/><path class="cls-2" d="M958.25,625.05c-97-52.73-189.65-73-310.57-44.61C784.85,515.32,874.88,546.79,958.25,625.05Z" transform="translate(-606.13 -253.34)"/><path class="cls-2" d="M955.85,612a394.15,394.15,0,0,0-33.34-26.91l.11.07S826.14,487.9,711.07,485.09c0,0-5.74,19,13.9,59.21-1.94.44-3.87.88-5.82,1.37-23.3-28.16-42.83-82.29-42.83-82.29C855.61,458.45,935.13,575,955.85,612Z" transform="translate(-606.13 -253.34)"/><path class="cls-3" d="M955.58,627.18s-157-51.89-338.43-11.83c6.38-10,15.46-20.91,27.05-26.76C644.2,588.59,784.85,545.68,955.58,627.18Z" transform="translate(-606.13 -253.34)"/><path class="cls-3" d="M784.85,447.66c-12-13.31-25-79.37-25-79.37,136.38,72.32,185.81,191.9,199.42,233.6C904.3,479.12,784.85,447.66,784.85,447.66Z" transform="translate(-606.13 -253.34)"/><path class="cls-3" d="M958.25,625.05c-73-46.87-174.2-92.95-310.57-44.61C784.85,515.32,874.88,546.79,958.25,625.05Z" transform="translate(-606.13 -253.34)"/><path class="cls-4" d="M922.51,585.11l.11.07h0Z" transform="translate(-606.13 -253.34)"/><path class="cls-3" d="M705.08,480.16c130.24-7.19,217.54,105,217.54,105S826.14,487.9,711.07,485.09c0,0-5.74,19,13.9,59.21C704.51,513,705.08,480.16,705.08,480.16Z" transform="translate(-606.13 -253.34)"/></svg>